<?xml version="1.0" encoding="UTF-8"?><svg xmlns="http://www.w3.org/2000/svg" viewBox="0 0 154.56 50"><defs><style>.d{letter-spacing:.03em;}.e{letter-spacing:.03em;}.f{letter-spacing:.02em;}.g{letter-spacing:.02em;}.h{letter-spacing:.02em;}.i{letter-spacing:.03em;}.j{letter-spacing:.03em;}.k{letter-spacing:.02em;}.l{letter-spacing:.02em;}.m{letter-spacing:.03em;}.n{letter-spacing:.03em;}.o{letter-spacing:0em;}.p{letter-spacing:.03em;}.q{letter-spacing:.08em;}.r,.s,.t{fill:#149e8e;}.u{letter-spacing:0em;}.v{letter-spacing:.08em;}.w{letter-spacing:0em;}.x{letter-spacing:.02em;}.y{letter-spacing:.03em;}.a`{letter-spacing:.02em;}.aa{letter-spacing:.02em;}.ab{letter-spacing:0em;}.s{font-family:MusticaPro-SemiBold, Mustica Pro;font-size:4.44px;}.ac{letter-spacing:.03em;}.ad{letter-spacing:.07em;}.ae{letter-spacing:.02em;}.af{letter-spacing:0em;}.t{font-family:Gogh-ExtraBold, Gogh;font-size:29.53px;}.ag{letter-spacing:.03em;}.ah{letter-spacing:.02em;}.ai{letter-spacing:.01em;}.aj{letter-spacing:.02em;}.ak{letter-spacing:.03em;}.al{letter-spacing:.01em;}.am{fill:#0e7c6c;}.an{letter-spacing:.08em;}.ao{fill:#f39444;}.ap{letter-spacing:.03em;}.aq{letter-spacing:.03em;}</style></defs><g id="a"/><g id="b"><g id="c"><g><g><text class="t" transform="translate(54.43 29.76)"><tspan class="ad" x="0" y="0">C</tspan><tspan class="q" x="23.47" y="0">M</tspan><tspan class="v" x="52.05" y="0">D</tspan><tspan class="an" x="76.48" y="0">C</tspan></text><text class="s" transform="translate(53.62 38.25)"><tspan class="l" x="0" y="0">C</tspan><tspan class="n" x="3.19" y="0">a</tspan><tspan class="al" x="6.02" y="0">r</tspan><tspan class="h" x="7.6" y="0">e</tspan><tspan class="i" x="10.19" y="0">e</tspan><tspan class="ab" x="12.78" y="0">r </tspan><tspan class="n" x="15.45" y="0">Ma</tspan><tspan class="ah" x="22.01" y="0">n</tspan><tspan class="y" x="24.69" y="0">ag</tspan><tspan class="i" x="30.33" y="0">e</tspan><tspan class="g" x="32.92" y="0">m</tspan><tspan class="aq" x="37.14" y="0">e</tspan><tspan class="aj" x="39.73" y="0">n</tspan><tspan class="ab" x="42.37" y="0">t </tspan><tspan class="ac" x="45.25" y="0">a</tspan><tspan class="ah" x="48.08" y="0">n</tspan><tspan x="50.76" y="0">d </tspan><tspan class="ap" x="54.61" y="0">D</tspan><tspan class="o" x="57.99" y="0">e</tspan><tspan class="af" x="60.48" y="0">v</tspan><tspan class="d" x="62.99" y="0">e</tspan><tspan class="ak" x="65.59" y="0">lop</tspan><tspan class="g" x="72.27" y="0">m</tspan><tspan class="aq" x="76.48" y="0">e</tspan><tspan class="aj" x="79.08" y="0">n</tspan><tspan class="ab" x="81.72" y="0">t </tspan><tspan class="k" x="84.6" y="0">C</tspan><tspan class="i" x="87.79" y="0">e</tspan><tspan class="ae" x="90.38" y="0">n</tspan><tspan class="ai" x="93.02" y="0">t</tspan><tspan class="i" x="94.81" y="0">e</tspan><tspan x="97.41" y="0">r</tspan></text><text class="s" transform="translate(54.14 44.28)"><tspan class="p" x="0" y="0">S</tspan><tspan class="f" x="2.88" y="0">T</tspan><tspan class="x" x="5.64" y="0">K</tspan><tspan class="m" x="8.49" y="0">I</tspan><tspan x="9.79" y="0">P </tspan><tspan class="j" x="13.74" y="0">Mu</tspan><tspan class="ah" x="20.16" y="0">h</tspan><tspan class="ac" x="22.84" y="0">am</tspan><tspan class="ag" x="29.89" y="0">ma</tspan><tspan class="e" x="36.93" y="0">d</tspan><tspan class="a`" x="39.76" y="0">i</tspan><tspan class="u" x="40.9" y="0">y</tspan><tspan class="n" x="43.37" y="0">a</tspan><tspan x="46.19" y="0">h </tspan><tspan class="w" x="49.91" y="0">K</tspan><tspan class="n" x="52.63" y="0">u</tspan><tspan class="aa" x="55.32" y="0">n</tspan><tspan class="p" x="58" y="0">i</tspan><tspan class="ah" x="59.15" y="0">n</tspan><tspan class="y" x="61.83" y="0">g</tspan><tspan class="ac" x="64.65" y="0">a</tspan><tspan x="67.48" y="0">n</tspan></text></g><g><path class="ao" d="M35.54,42.67c-2.9,2.9-6.64,4.94-10.84,5.73v.83c0,.43-.34,.77-.77,.77h-6.25c-.43,0-.77-.34-.77-.77v-.85c-4.16-.8-7.87-2.83-10.75-5.71l2.32-2.32c3.16,3.16,7.54,5.12,12.37,5.12s9.2-1.96,12.37-5.12l2.32,2.32Z"/><path class="r" d="M25,22.19v5.79c0,1.14-.47,2.18-1.22,2.93-.75,.75-1.78,1.22-2.93,1.22s-2.18-.47-2.93-1.22-1.22-1.78-1.22-2.93v-5.79l4.14,1.65,4.14-1.65Z"/><polygon class="r" points="0 8.3 10.43 4.15 20.85 0 31.28 4.15 41.71 8.3 31.28 12.44 20.85 16.59 10.43 12.44 0 8.3"/><path class="ao" d="M35.93,17.84v10.14h0c0,4.16-1.69,7.93-4.42,10.65h0c-2.73,2.73-6.49,4.42-10.65,4.42s-7.93-1.69-10.66-4.42c-2.73-2.73-4.42-6.5-4.42-10.66v-10.14l.65,.26,5.93,2.36v7.53h0c0,2.35,.95,4.47,2.49,6.01,1.54,1.54,3.66,2.49,6.01,2.49s4.47-.95,6.01-2.49,2.49-3.66,2.49-6.01v-7.53l5.93-2.36,.65-.26Z"/><polygon class="r" points="41.71 13.12 37.05 14.98 35.93 15.43 33.83 16.26 31.28 17.27 29.35 18.04 25 19.77 20.85 21.42 16.71 19.77 12.35 18.04 10.43 17.27 7.87 16.26 5.78 15.42 4.65 14.98 0 13.12 3.03 11.92 5.78 13.01 6.26 13.2 9.66 14.55 10.43 14.86 12.35 15.62 16.71 17.36 20.85 19.01 25 17.36 29.35 15.63 31.28 14.86 32.05 14.55 35.45 13.2 35.93 13.01 38.68 11.92 41.71 13.12"/><polygon class="r" points="40.06 16.2 40.06 27.89 39.6 27.89 39.6 16.4 40.06 16.2"/><path class="am" d="M40.37,28.38v.66c-.42-.12-.81-.05-1.02,.02v-.68c0-.08,.14-.15,.32-.15h.37c.18,0,.32,.07,.32,.15Z"/><path class="am" d="M40.43,32.21h-1.16c-.55,0-.81-.51-.62-1l.63-1.67c.03-.09,.2-.15,.38-.15h.37c.18,0,.35,.06,.38,.15l.63,1.67c.18,.48-.07,1-.62,1Z"/></g></g></g></g></svg>